# OBJ generated by ONSHAPE BY PTC INC, 1.215 Units = meters
mtllib Part Studio 1.mtl
g Part 1
v 0.0514328 -0.0767645 0.00254 
v 0.0514328 -0.0767645 0 
v 0.0514686 -0.0769546 0 
v 0.0514686 -0.0769546 0.00254 
v 0.0768686 -0.0769546 0 
v 0.0768686 -0.0769546 0.00254 
v -0.0463982 0.0581835 0.00254 
v -0.0463982 0.0581835 4.33681e-19 
v -0.0508948 0.0758622 0 
v -0.0431731 0.0469464 0.00254 
v -0.0431731 0.0469464 4.33681e-19 
v -0.0403436 0.0386647 0.00254 
v -0.0403436 0.0386647 0 
v -0.0379665 0.0330939 8.67362e-19 
v -0.0363931 0.030174 0.00254 
v -0.0363931 0.030174 4.33681e-19 
v -0.0352948 0.0285155 0.00254 
v -0.0352948 0.0285155 4.33681e-19 
v -0.034413 0.0274147 0.00254 
v -0.034413 0.0274147 4.33681e-19 
v -0.03369 0.0266676 0.00254 
v -0.03369 0.0266676 4.33681e-19 
v -0.03308 0.0261468 0.00254 
v -0.03308 0.0261468 4.33681e-19 
v -0.032551 0.0257769 0.00254 
v -0.032551 0.0257769 0 
v -0.0320805 0.0255117 4.33681e-19 
v -0.0316523 0.0253226 0.00254 
v -0.0316523 0.0253226 4.33681e-19 
v -0.0312539 0.0251914 0.00254 
v -0.0312539 0.0251914 4.33681e-19 
v -0.0308512 0.0251027 0.00254 
v -0.0308512 0.0251027 4.33681e-19 
v -0.0304489 0.0250581 0.00254 
v -0.0304489 0.0250581 0 
v -0.0300601 0.0250567 4.33681e-19 
v -0.0296756 0.0250956 0.00254 
v -0.0296756 0.0250956 4.33681e-19 
v -0.0292866 0.0251757 8.67362e-19 
v -0.0288844 0.0253015 0.00254 
v -0.0288844 0.0253015 8.67362e-19 
v -0.0284597 0.0254816 0.00254 
v -0.0284597 0.0254816 4.33681e-19 
v -0.028 0.0257298 0.00254 
v -0.028 0.0257298 4.33681e-19 
v -0.0274715 0.0260794 0.00254 
v -0.0274715 0.0260794 4.33681e-19 
v -0.0267049 0.0266994 0.00254 
v -0.0267049 0.0266994 4.33681e-19 
v -0.0263381 0.0270399 0.00254 
v -0.0263381 0.0270399 4.33681e-19 
v -0.0251375 0.0283309 0.00254 
v -0.0251375 0.0283309 4.33681e-19 
v -0.0232781 0.0307765 8.67362e-19 
v -0.0196954 0.0365092 0.00254 
v -0.0196954 0.0365092 4.33681e-19 
v -0.0134565 0.047482 0.00254 
v -0.0134565 0.047482 8.67362e-19 
v -0.00982579 0.0533257 0.00254 
v -0.00982579 0.0533257 4.33681e-19 
v -0.0070764 0.0571076 0.00254 
v -0.0070764 0.0571076 4.33681e-19 
v -0.00516109 0.0593191 0.00254 
v -0.00516109 0.0593191 4.33681e-19 
v -0.00356756 0.060857 0.00254 
v -0.00356756 0.060857 4.33681e-19 
v -0.00214053 0.0619819 0.00254 
v -0.00214053 0.0619819 4.33681e-19 
v -0.00108332 0.0626528 0.00254 
v -0.00108332 0.0626528 4.33681e-19 
v -0.000155681 0.0631229 0.00254 
v -0.000155681 0.0631229 4.33681e-19 
v 0.000701126 0.0634563 0.00254 
v 0.000701126 0.0634563 4.33681e-19 
v 0.00161624 0.0637078 0.00254 
v 0.00161624 0.0637078 4.33681e-19 
v 0.00250562 0.0638527 0.00254 
v 0.00250562 0.0638527 4.33681e-19 
v 0.00338908 0.0639033 0.00254 
v 0.00338908 0.0639033 0 
v 0.00428664 0.0638631 4.33681e-19 
v 0.0052183 0.0637275 0.00254 
v 0.0052183 0.0637275 4.33681e-19 
v 0.00620576 0.0634834 8.67362e-19 
v 0.00718741 0.0631425 0.00254 
v 0.00718741 0.0631425 0 
v 0.00836305 0.0626108 0.00254 
v 0.00836305 0.0626108 0 
v 0.0096856 0.0618594 8.67362e-19 
v 0.0112147 0.0607989 0.00254 
v 0.0112147 0.0607989 8.67362e-19 
v 0.0134039 0.058946 0.00254 
v 0.0134039 0.058946 8.67362e-19 
v 0.0162925 0.0559478 0.00254 
v 0.0162925 0.0559478 4.33681e-19 
v 0.0202983 0.0508625 0.00254 
v 0.0202983 0.0508625 4.33681e-19 
v 0.0244479 0.0446061 0.00254 
v 0.0244479 0.0446061 0 
v 0.0291853 0.0364176 0.00254 
v 0.0291853 0.0364176 4.33681e-19 
v 0.0345913 0.0259367 0.00254 
v 0.0345913 0.0259367 4.33681e-19 
v 0.0408063 0.0126777 0.00254 
v 0.0408063 0.0126777 8.67362e-19 
v 0.048039 -0.004004 0.00254 
v 0.048039 -0.004004 4.33681e-19 
v 0.0585606 -0.029909 0.00254 
v 0.0585606 -0.029909 0 
v 0.0753269 -0.0729826 0.00254 
v 0.0753269 -0.0729826 4.33681e-19 
v 0.0096856 0.0618594 0.00254 
v 0.00620576 0.0634834 0.00254 
v 0.00428664 0.0638631 0.00254 
v -0.0232781 0.0307765 0.00254 
v -0.0292866 0.0251757 0.00254 
v -0.0300601 0.0250567 0.00254 
v -0.0320805 0.0255117 0.00254 
v -0.0379665 0.0330939 0.00254 
v -0.0508948 0.0758622 0.00254 
v 0.0513006 -0.0769763 0.00254 
v 0.0513204 -0.0769698 0.00254 
v 0.0513382 -0.0769618 0.00254 
v 0.0513543 -0.0769525 0.00254 
v 0.0512794 -0.0769808 0.00254 
v 0.0513689 -0.0769418 0.00254 
v 0.051382 -0.0769299 0.00254 
v 0.0513938 -0.0769168 0.00254 
v 0.0514042 -0.0769024 0.00254 
v 0.0512573 -0.0769832 0.00254 
v 0.0512328 -0.0769834 0.00254 
v 0.0512053 -0.076981 0.00254 
v 0.0509304 -0.0768361 0.00254 
v 0.0514103 -0.0768924 0.00254 
v 0.0514185 -0.0768759 0.00254 
v 0.0511744 -0.0769752 0.00254 
v 0.0514252 -0.0768581 0.00254 
v 0.0511391 -0.076965 0.00254 
v 0.0514303 -0.0768389 0.00254 
v 0.0510986 -0.0769487 0.00254 
v 0.0514336 -0.0768184 0.00254 
v 0.0510515 -0.0769243 0.00254 
v 0.0501761 -0.0757384 0.00254 
v 0.0505379 -0.0763532 0.00254 
v 0.0514348 -0.0767966 0.00254 
v 0.0509965 -0.0768887 0.00254 
v 0.0507375 -0.0766299 0.00254 
v 0.0469602 -0.0678443 0.00254 
v 0.0508479 -0.0767566 0.00254 
v 0.0496053 -0.0745751 0.00254 
v 0.0514338 -0.0767735 0.00254 
v -0.066695 0.0523284 0.00254 
v 0.0422886 -0.0543153 0.00254 
v -0.0762948 0.0758622 0.00254 
v -0.0762948 0.075777 0.00254 
v -0.0602786 0.0374676 0.00254 
v 0.0329918 -0.0269842 0.00254 
v 0.0259618 -0.00763965 0.00254 
v -0.0216857 0.00915967 0.00254 
v -0.0175086 0.0173809 0.00254 
v -0.0547233 0.0256382 0.00254 
v -0.0500568 0.0167774 0.00254 
v 0.0208852 0.00511587 0.00254 
v -0.0156415 0.0211941 0.00254 
v -0.00810108 0.0339572 0.00254 
v -0.0126305 0.0270139 0.00254 
v 0.0164503 0.0151579 0.00254 
v 0.0126439 0.0227573 0.00254 
v -0.00692509 0.035258 0.00254 
v -0.0099804 0.0314175 0.00254 
v -0.0460932 0.0102647 0.00254 
v 0.00894944 0.0290235 0.00254 
v 0.00138332 0.0372009 0.00254 
v 0.00212525 0.0367491 0.00254 
v 0.000735582 0.0375188 0.00254 
v 0.000151089 0.0377409 0.00254 
v -0.0243427 0.00474918 0.00254 
v -0.00595031 0.0361551 0.00254 
v -0.00312783 0.0377714 0.00254 
v 0.00630265 0.0326964 0.00254 
v 0.00449125 0.0347441 0.00254 
v -0.000420189 0.0378955 0.00254 
v -0.00206428 0.0379887 0.00254 
v -0.0043356 0.0372623 0.00254 
v -0.00370601 0.0375622 0.00254 
v -0.0271747 0.00123299 0.00254 
v -0.0259805 0.00254467 0.00254 
v -0.00512848 0.0367788 0.00254 
v -0.0428271 0.00576648 0.00254 
v 0.00315994 0.0359731 0.00254 
v -0.00150815 0.0380156 0.00254 
v -0.0281054 0.000398892 0.00254 
v -0.0406404 0.00327366 0.00254 
v -0.0295031 -0.000527301 0.00254 
v -0.0288048 -0.000113849 0.00254 
v -0.0320201 -0.00126425 0.00254 
v -0.0313809 -0.00118272 0.00254 
v -0.00258499 0.0379095 0.00254 
v -0.038899 0.00162737 0.00254 
v -0.0364763 -0.000101255 0.00254 
v -0.0355395 -0.000576849 0.00254 
v -0.0375745 0.000596586 0.00254 
v -0.0333275 -0.00122456 0.00254 
v -0.0326897 -0.00127763 0.00254 
v -0.000964173 0.0379841 0.00254 
v -0.0301363 -0.0008205 0.00254 
v -0.0307578 -0.00103589 0.00254 
v -0.0339807 -0.00110623 0.00254 
v -0.0347184 -0.000897915 0.00254 
v 0.0513006 -0.0769763 4.33681e-19 
v 0.0513543 -0.0769525 0 
v 0.0513382 -0.0769618 8.67362e-19 
v 0.0513204 -0.0769698 4.33681e-19 
v 0.0512794 -0.0769808 4.33681e-19 
v 0.0513689 -0.0769418 4.33681e-19 
v 0.051382 -0.0769299 4.33681e-19 
v 0.0513938 -0.0769168 4.33681e-19 
v 0.0514042 -0.0769024 8.67362e-19 
v 0.0512573 -0.0769832 4.33681e-19 
v 0.0512328 -0.0769834 4.33681e-19 
v 0.0512053 -0.076981 4.33681e-19 
v 0.0509304 -0.0768361 4.33681e-19 
v 0.0514252 -0.0768581 4.33681e-19 
v 0.0514185 -0.0768759 4.33681e-19 
v 0.0511744 -0.0769752 4.33681e-19 
v 0.0514303 -0.0768389 8.67362e-19 
v 0.0511391 -0.076965 4.33681e-19 
v 0.0514336 -0.0768184 4.33681e-19 
v 0.0510986 -0.0769487 4.33681e-19 
v 0.0514348 -0.0767966 0 
v 0.0510515 -0.0769243 4.33681e-19 
v 0.0514338 -0.0767735 1.73472e-18 
v 0.0507375 -0.0766299 0 
v 0.0505379 -0.0763532 4.33681e-19 
v 0.0509965 -0.0768887 4.33681e-19 
v 0.0514103 -0.0768924 4.33681e-19 
v 0.0496053 -0.0745751 4.33681e-19 
v 0.0469602 -0.0678443 4.33681e-19 
v 0.0508479 -0.0767566 4.33681e-19 
v 0.0501761 -0.0757384 4.33681e-19 
v -0.066695 0.0523284 4.33681e-19 
v -0.0762948 0.075777 0 
v 0.0422886 -0.0543153 4.33681e-19 
v -0.0216857 0.00915967 8.67362e-19 
v 0.0329918 -0.0269842 4.33681e-19 
v -0.0762948 0.0758622 0 
v -0.0099804 0.0314175 4.33681e-19 
v -0.0126305 0.0270139 4.33681e-19 
v -0.0156415 0.0211941 8.67362e-19 
v -0.00692509 0.035258 4.33681e-19 
v -0.00810108 0.0339572 8.67362e-19 
v -0.0175086 0.0173809 8.67362e-19 
v 0.0259618 -0.00763965 4.33681e-19 
v -0.0500568 0.0167774 8.67362e-19 
v -0.0547233 0.0256382 4.33681e-19 
v -0.0602786 0.0374676 4.33681e-19 
v -0.00595031 0.0361551 8.67362e-19 
v 0.0164503 0.0151579 4.33681e-19 
v 0.0126439 0.0227573 0 
v 0.0208852 0.00511587 0 
v -0.00512848 0.0367788 4.33681e-19 
v 0.000151089 0.0377409 4.33681e-19 
v 0.000735582 0.0375188 0 
v 0.00138332 0.0372009 4.33681e-19 
v 0.00894944 0.0290235 0 
v -0.0460932 0.0102647 4.33681e-19 
v -0.0243427 0.00474918 4.33681e-19 
v -0.00312783 0.0377714 4.33681e-19 
v -0.00370601 0.0375622 4.33681e-19 
v 0.00212525 0.0367491 4.33681e-19 
v -0.0259805 0.00254467 4.33681e-19 
v -0.00206428 0.0379887 4.33681e-19 
v -0.00258499 0.0379095 0 
v -0.000420189 0.0378955 4.33681e-19 
v -0.000964173 0.0379841 0 
v 0.00630265 0.0326964 4.33681e-19 
v -0.0428271 0.00576648 0 
v -0.0043356 0.0372623 4.33681e-19 
v -0.0271747 0.00123299 4.33681e-19 
v -0.00150815 0.0380156 4.33681e-19 
v 0.00315994 0.0359731 0 
v 0.00449125 0.0347441 4.33681e-19 
v -0.0281054 0.000398892 4.33681e-19 
v -0.0307578 -0.00103589 4.33681e-19 
v -0.0313809 -0.00118272 8.67362e-19 
v -0.0288048 -0.000113849 4.33681e-19 
v -0.038899 0.00162737 4.33681e-19 
v -0.0406404 0.00327366 0 
v -0.0301363 -0.0008205 8.67362e-19 
v -0.0295031 -0.000527301 8.67362e-19 
v -0.0320201 -0.00126425 4.33681e-19 
v -0.0326897 -0.00127763 0 
v -0.0364763 -0.000101255 4.33681e-19 
v -0.0375745 0.000596586 4.33681e-19 
v -0.0347184 -0.000897915 4.33681e-19 
v -0.0355395 -0.000576849 8.67362e-19 
v -0.0339807 -0.00110623 8.67362e-19 
v -0.0333275 -0.00122456 0 
vn -0.982756 -0.184907 0 
vn 0 -1 0 
vn 0.965774 0.259386 0 
vn 0.970977 0.239175 0 
vn 0.954807 0.297227 0 
vn 0.934397 0.356233 0 
vn 0.899191 0.437557 0 
vn 0.855732 0.51742 0 
vn 0.806796 0.59083 0 
vn 0.74901 0.662559 0 
vn 0.683378 0.730065 0 
vn 0.610644 0.791905 0 
vn 0.531604 0.846993 0 
vn 0.447095 0.894487 0 
vn 0.357991 0.933725 0 
vn 0.265208 0.964191 0 
vn 0.163352 0.986568 0 
vn 0.0561981 0.99842 0 
vn -0.0491416 0.998792 0 
vn -0.151575 0.988446 0 
vn -0.250277 0.968174 0 
vn -0.344495 0.938788 0 
vn -0.433173 0.901311 0 
vn -0.513083 0.858339 0 
vn -0.586338 0.810067 0 
vn -0.665226 0.746642 0 
vn -0.694278 0.719707 0 
vn -0.762669 0.646789 0 
vn -0.820862 0.571126 0 
vn -0.864519 0.502601 0 
vn -0.862947 0.505294 0 
vn -0.830397 0.557172 0 
vn -0.781192 0.624291 0 
vn -0.725493 0.688229 0 
vn -0.657977 0.753038 0 
vn -0.574095 0.818789 0 
vn -0.493367 0.869821 0 
vn -0.407166 0.913354 0 
vn -0.316006 0.948757 0 
vn -0.212349 0.977194 0 
vn -0.108594 0.994086 0 
vn -0.00601015 0.999982 0 
vn 0.0944598 0.995529 0 
vn 0.191942 0.981406 0 
vn 0.285636 0.958338 0 
vn 0.368031 0.929813 0 
vn 0.452761 0.891632 0 
vn 0.531524 0.847043 0 
vn 0.604178 0.796849 0 
vn 0.681827 0.731514 0 
vn 0.751739 0.659461 0 
vn 0.812279 0.583269 0 
vn 0.850496 0.525981 0 
vn 0.877915 0.478817 0 
vn 0.897651 0.440708 0 
vn 0.911898 0.410417 0 
vn 0.922037 0.387101 0 
vn 0.9298 0.368064 0 
vn 0.932353 0.361551 0 
vn 0.932125 0.362137 0 
vn 0.531524 0.847043 0 
vn 0.285636 0.958338 0 
vn 0.0944598 0.995529 0 
vn -0.820862 0.571126 0 
vn -0.250277 0.968174 0 
vn -0.0491416 0.998792 0 
vn 0.447095 0.894487 0 
vn 0.899191 0.437557 0 
vn 0.970977 0.239175 0 
vn 0 0 1 
vn 0 0 -1 
vn 0 1 0 
vn -1 0 0 
vn 0.995666 0.0930004 0 
vn 0.991437 0.130585 0 
vn 0.999972 -0.00746148 0 
vn 0.994162 -0.107894 0 
vn 0.978273 -0.207319 0 
vn 0.952422 -0.304783 0 
vn 0.916798 -0.399351 0 
vn 0.871539 -0.490327 0 
vn 0.837456 -0.546504 0 
vn 0.777368 -0.629046 0 
vn 0.708772 -0.705437 0 
vn 0.63218 -0.774821 0 
vn 0.548184 -0.836358 0 
vn 0.457456 -0.889232 0 
vn 0.360756 -0.93266 0 
vn 0.25903 -0.965869 0 
vn 0.157383 -0.987538 0 
vn 0.0600662 -0.998194 0 
vn -0.037746 -0.999287 0 
vn -0.1351 -0.990832 0 
vn -0.231048 -0.972942 0 
vn -0.324661 -0.94583 0 
vn -0.415035 -0.909806 0 
vn -0.501305 -0.86527 0 
vn -0.582229 -0.813025 0 
vn -0.657965 -0.753049 0 
vn -0.723506 -0.690318 0 
vn -0.779021 -0.626997 0 
vn -0.834759 -0.550615 0 
vn -0.880499 -0.474048 0 
vn -0.909618 -0.415446 0 
vn -0.940249 -0.340487 0 
vn -0.947566 -0.31956 0 
vn -0.943976 -0.330013 0 
vn -0.934516 -0.355921 0 
vn -0.922486 -0.38603 0 
vn -0.905162 -0.425067 0 
vn -0.880175 -0.474649 0 
vn -0.836431 -0.548073 0 
vn -0.778706 -0.627388 0 
vn -0.712293 -0.701882 0 
vn -0.637921 -0.770102 0 
vn -0.556332 -0.83096 0 
vn -0.479915 -0.877315 0 
vn -0.397783 -0.917479 0 
vn -0.309455 -0.950914 0 
vn -0.210677 -0.977556 0 
vn -0.109792 -0.993955 0 
vn -0.0053417 -0.999986 0 
vn 0.101507 -0.994835 0 
vn 0.198317 -0.980138 0 
vn 0.293034 -0.956102 0 
vn 0.384682 -0.923049 0 
vn 0.472249 -0.881465 0 
vn 0.564303 -0.825568 0 
vn 0.640273 -0.768148 0 
vn 0.709238 -0.704969 0 
vn 0.769345 -0.638834 0 
vn 0.830605 -0.556862 0 
vn 0.875654 -0.48294 0 
vn 0.896294 -0.44346 0 
vn 0.898764 -0.438432 0 
vn 0.876351 -0.481674 0 
vn 0.828257 -0.560349 0 
vn 0.770114 -0.637906 0 
vn 0.702387 -0.711795 0 
vn 0.626614 -0.77933 0 
vn 0.551918 -0.833899 0 
vn 0.46377 -0.885956 0 
vn 0.37415 -0.927368 0 
vn 0.278889 -0.960323 0 
vn 0.17863 -0.983916 0 
vn 0.0740874 -0.997252 0 
vn -0.0335441 -0.999437 0 
vn -0.131088 -0.991371 0 
vn -0.223586 -0.974684 0 
vn -0.317333 -0.948314 0 
vn -0.407696 -0.913118 0 
vn -0.493715 -0.869624 0 
vn -0.574447 -0.818542 0 
vn -0.64888 -0.760891 0 
vn -0.719198 -0.694805 0 
vn -0.778599 -0.627521 0 
vn -0.833064 -0.553176 0 
vn -0.870746 -0.491734 0 
vn -0.895839 -0.444378 0 
vn -0.912443 -0.409205 0 
vn -0.922365 -0.38632 0 
vn -0.926804 -0.375546 0 
vn -0.870746 -0.491734 0 
vn -0.407696 -0.913118 0 
vn -0.223586 -0.974684 0 
vn 0.17863 -0.983916 0 
vn 0.46377 -0.885956 0 
vn 0.896294 -0.44346 0 
vn 0.769345 -0.638834 0 
vn 0.640273 -0.768148 0 
vn 0.293034 -0.956102 0 
vn -0.0053417 -0.999986 0 
vn -0.309455 -0.950914 0 
vn -0.556332 -0.83096 0 
vn -0.778706 -0.627388 0 
vn -0.834759 -0.550615 0 
vn 0.457456 -0.889232 0 
vn 0.837456 -0.546504 0 
vn 0.978273 -0.207319 0 
vn 0.995666 0.0930004 0 
usemtl 0.615686_0.811765_0.929412_0.000000_0.000000
o mesh0
f 1//1 2//1 3//1 
f 3//1 4//1 1//1 
o mesh1
f 4//2 3//2 5//2 
f 5//2 6//2 4//2 
o mesh2
f 7//3 8//3 9//4 
f 10//5 11//5 8//3 
f 12//6 13//6 11//5 
f 14//7 13//6 12//6 
f 15//8 16//8 14//7 
f 17//9 18//9 16//8 
f 19//10 20//10 18//9 
f 21//11 22//11 20//10 
f 23//12 24//12 22//11 
f 25//13 26//13 24//12 
f 27//14 26//13 25//13 
f 28//15 29//15 27//14 
f 30//16 31//16 29//15 
f 32//17 33//17 31//16 
f 34//18 35//18 33//17 
f 36//19 35//18 34//18 
f 37//20 38//20 36//19 
f 39//21 38//20 37//20 
f 40//22 41//22 39//21 
f 42//23 43//23 41//22 
f 44//24 45//24 43//23 
f 46//25 47//25 45//24 
f 48//26 49//26 47//25 
f 50//27 51//27 49//26 
f 52//28 53//28 51//27 
f 54//29 53//28 52//28 
f 55//30 56//30 54//29 
f 57//31 58//31 56//30 
f 59//32 60//32 58//31 
f 61//33 62//33 60//32 
f 63//34 64//34 62//33 
f 65//35 66//35 64//34 
f 67//36 68//36 66//35 
f 69//37 70//37 68//36 
f 71//38 72//38 70//37 
f 73//39 74//39 72//38 
f 75//40 76//40 74//39 
f 77//41 78//41 76//40 
f 79//42 80//42 78//41 
f 81//43 80//42 79//42 
f 82//44 83//44 81//43 
f 84//45 83//44 82//44 
f 85//46 86//46 84//45 
f 87//47 88//47 86//46 
f 89//48 88//47 87//47 
f 90//49 91//49 89//48 
f 92//50 93//50 91//49 
f 94//51 95//51 93//50 
f 96//52 97//52 95//51 
f 98//53 99//53 97//52 
f 100//54 101//54 99//53 
f 102//55 103//55 101//54 
f 104//56 105//56 103//55 
f 106//57 107//57 105//56 
f 108//58 109//58 107//57 
f 110//59 111//59 109//58 
f 6//60 5//60 111//59 
f 111//59 110//59 6//60 
f 109//58 108//58 110//59 
f 107//57 106//57 108//58 
f 105//56 104//56 106//57 
f 103//55 102//55 104//56 
f 101//54 100//54 102//55 
f 99//53 98//53 100//54 
f 97//52 96//52 98//53 
f 95//51 94//51 96//52 
f 93//50 92//50 94//51 
f 91//49 90//49 92//50 
f 89//48 112//61 90//49 
f 87//47 112//61 89//48 
f 86//46 85//46 87//47 
f 84//45 113//62 85//46 
f 82//44 113//62 84//45 
f 81//43 114//63 82//44 
f 79//42 114//63 81//43 
f 78//41 77//41 79//42 
f 76//40 75//40 77//41 
f 74//39 73//39 75//40 
f 72//38 71//38 73//39 
f 70//37 69//37 71//38 
f 68//36 67//36 69//37 
f 66//35 65//35 67//36 
f 64//34 63//34 65//35 
f 62//33 61//33 63//34 
f 60//32 59//32 61//33 
f 58//31 57//31 59//32 
f 56//30 55//30 57//31 
f 54//29 115//64 55//30 
f 52//28 115//64 54//29 
f 51//27 50//27 52//28 
f 49//26 48//26 50//27 
f 47//25 46//25 48//26 
f 45//24 44//24 46//25 
f 43//23 42//23 44//24 
f 41//22 40//22 42//23 
f 39//21 116//65 40//22 
f 37//20 116//65 39//21 
f 36//19 117//66 37//20 
f 34//18 117//66 36//19 
f 33//17 32//17 34//18 
f 31//16 30//16 32//17 
f 29//15 28//15 30//16 
f 27//14 118//67 28//15 
f 25//13 118//67 27//14 
f 24//12 23//12 25//13 
f 22//11 21//11 23//12 
f 20//10 19//10 21//11 
f 18//9 17//9 19//10 
f 16//8 15//8 17//9 
f 14//7 119//68 15//8 
f 12//6 119//68 14//7 
f 11//5 10//5 12//6 
f 8//3 7//3 10//5 
f 9//4 120//69 7//3 
o mesh3
f 121//70 122//70 123//70 
f 124//70 125//70 121//70 
f 123//70 124//70 121//70 
f 124//70 126//70 125//70 
f 126//70 127//70 125//70 
f 127//70 128//70 125//70 
f 129//70 130//70 125//70 
f 129//70 131//70 130//70 
f 129//70 132//70 131//70 
f 133//70 134//70 135//70 
f 129//70 136//70 132//70 
f 135//70 137//70 133//70 
f 129//70 138//70 136//70 
f 137//70 139//70 133//70 
f 129//70 140//70 138//70 
f 139//70 141//70 133//70 
f 129//70 142//70 140//70 
f 1//70 143//70 144//70 
f 141//70 145//70 133//70 
f 129//70 146//70 142//70 
f 144//70 147//70 1//70 
f 1//70 102//70 148//70 
f 133//70 129//70 134//70 
f 129//70 133//70 146//70 
f 147//70 149//70 1//70 
f 148//70 150//70 1//70 
f 128//70 129//70 125//70 
f 150//70 143//70 1//70 
f 145//70 151//70 133//70 
f 151//70 1//70 133//70 
f 152//70 7//70 120//70 
f 102//70 153//70 148//70 
f 120//70 154//70 155//70 
f 152//70 156//70 10//70 
f 102//70 157//70 153//70 
f 10//70 7//70 152//70 
f 102//70 158//70 157//70 
f 159//70 160//70 46//70 
f 156//70 12//70 10//70 
f 161//70 119//70 12//70 
f 161//70 162//70 15//70 
f 162//70 19//70 17//70 
f 102//70 163//70 158//70 
f 46//70 44//70 159//70 
f 160//70 50//70 48//70 
f 50//70 160//70 164//70 
f 57//70 55//70 165//70 
f 164//70 166//70 115//70 
f 55//70 115//70 166//70 
f 12//70 156//70 161//70 
f 17//70 15//70 162//70 
f 102//70 167//70 163//70 
f 102//70 100//70 168//70 
f 44//70 42//70 159//70 
f 164//70 52//70 50//70 
f 165//70 169//70 57//70 
f 166//70 170//70 55//70 
f 15//70 119//70 161//70 
f 171//70 21//70 19//70 
f 168//70 167//70 102//70 
f 100//70 98//70 172//70 
f 173//70 174//70 94//70 
f 175//70 173//70 92//70 
f 176//70 175//70 90//70 
f 116//70 177//70 159//70 
f 48//70 46//70 160//70 
f 169//70 178//70 57//70 
f 115//70 52//70 164//70 
f 19//70 162//70 171//70 
f 172//70 168//70 100//70 
f 92//70 90//70 175//70 
f 90//70 112//70 176//70 
f 179//70 61//70 59//70 
f 42//70 40//70 159//70 
f 170//70 165//70 55//70 
f 171//70 23//70 21//70 
f 25//70 23//70 171//70 
f 98//70 180//70 172//70 
f 96//70 181//70 180//70 
f 112//70 87//70 176//70 
f 182//70 85//70 113//70 
f 182//70 176//70 87//70 
f 182//70 77//70 75//70 
f 183//70 63//70 61//70 
f 59//70 184//70 185//70 
f 117//70 186//70 187//70 
f 37//70 187//70 177//70 
f 178//70 188//70 57//70 
f 171//70 189//70 25//70 
f 180//70 98//70 96//70 
f 96//70 94//70 190//70 
f 94//70 92//70 173//70 
f 87//70 85//70 182//70 
f 182//70 79//70 77//70 
f 191//70 67//70 65//70 
f 183//70 65//70 63//70 
f 59//70 185//70 179//70 
f 117//70 192//70 186//70 
f 184//70 59//70 57//70 
f 159//70 40//70 116//70 
f 189//70 118//70 25//70 
f 28//70 118//70 189//70 
f 30//70 28//70 193//70 
f 190//70 181//70 96//70 
f 113//70 82//70 182//70 
f 182//70 114//70 79//70 
f 34//70 194//70 195//70 
f 34//70 196//70 197//70 
f 191//70 69//70 67//70 
f 179//70 198//70 61//70 
f 117//70 195//70 192//70 
f 177//70 116//70 37//70 
f 189//70 193//70 28//70 
f 193//70 199//70 30//70 
f 32//70 200//70 201//70 
f 32//70 30//70 202//70 
f 34//70 203//70 204//70 
f 174//70 190//70 94//70 
f 182//70 82//70 114//70 
f 205//70 71//70 69//70 
f 205//70 75//70 73//70 
f 34//70 206//70 194//70 
f 197//70 207//70 34//70 
f 61//70 198//70 183//70 
f 57//70 188//70 184//70 
f 1//70 106//70 104//70 
f 199//70 202//70 30//70 
f 202//70 200//70 32//70 
f 34//70 208//70 203//70 
f 34//70 32//70 209//70 
f 75//70 205//70 182//70 
f 73//70 71//70 205//70 
f 207//70 206//70 34//70 
f 187//70 37//70 117//70 
f 1//70 108//70 106//70 
f 110//70 108//70 1//70 
f 201//70 209//70 32//70 
f 209//70 208//70 34//70 
f 69//70 191//70 205//70 
f 65//70 183//70 191//70 
f 1//70 4//70 110//70 
f 204//70 196//70 34//70 
f 195//70 117//70 34//70 
f 4//70 6//70 110//70 
f 149//70 133//70 1//70 
f 120//70 155//70 152//70 
f 104//70 102//70 1//70 
o mesh4
f 210//71 211//71 212//71 
f 212//71 213//71 210//71 
f 214//71 215//71 211//71 
f 214//71 216//71 215//71 
f 214//71 217//71 216//71 
f 214//71 218//71 217//71 
f 210//71 214//71 211//71 
f 214//71 219//71 218//71 
f 219//71 220//71 218//71 
f 220//71 221//71 218//71 
f 222//71 223//71 224//71 
f 221//71 225//71 218//71 
f 222//71 226//71 223//71 
f 225//71 227//71 218//71 
f 222//71 228//71 226//71 
f 227//71 229//71 218//71 
f 222//71 230//71 228//71 
f 229//71 231//71 218//71 
f 222//71 232//71 230//71 
f 2//71 233//71 234//71 
f 231//71 235//71 218//71 
f 224//71 236//71 222//71 
f 2//71 237//71 238//71 
f 2//71 239//71 233//71 
f 236//71 218//71 222//71 
f 2//71 240//71 237//71 
f 2//71 222//71 239//71 
f 222//71 2//71 232//71 
f 234//71 240//71 2//71 
f 238//71 103//71 2//71 
f 235//71 222//71 218//71 
f 241//71 242//71 9//71 
f 238//71 243//71 103//71 
f 241//71 8//71 11//71 
f 9//71 8//71 241//71 
f 244//71 45//71 47//71 
f 243//71 245//71 103//71 
f 242//71 246//71 9//71 
f 56//71 247//71 248//71 
f 249//71 53//71 54//71 
f 58//71 250//71 251//71 
f 51//71 53//71 249//71 
f 252//71 47//71 49//71 
f 244//71 43//71 45//71 
f 245//71 253//71 103//71 
f 254//71 16//71 18//71 
f 255//71 14//71 16//71 
f 255//71 256//71 13//71 
f 11//71 256//71 241//71 
f 54//71 248//71 249//71 
f 58//71 257//71 250//71 
f 49//71 51//71 252//71 
f 244//71 41//71 43//71 
f 103//71 258//71 259//71 
f 253//71 260//71 103//71 
f 16//71 254//71 255//71 
f 11//71 13//71 256//71 
f 56//71 251//71 247//71 
f 58//71 261//71 257//71 
f 47//71 252//71 244//71 
f 39//71 41//71 244//71 
f 262//71 89//71 91//71 
f 263//71 91//71 93//71 
f 264//71 93//71 95//71 
f 101//71 259//71 265//71 
f 260//71 258//71 103//71 
f 266//71 254//71 20//71 
f 13//71 14//71 255//71 
f 251//71 56//71 58//71 
f 244//71 267//71 39//71 
f 268//71 269//71 60//71 
f 262//71 88//71 89//71 
f 95//71 270//71 264//71 
f 259//71 101//71 103//71 
f 18//71 20//71 254//71 
f 249//71 252//71 51//71 
f 38//71 39//71 267//71 
f 36//71 38//71 271//71 
f 60//71 62//71 268//71 
f 272//71 273//71 62//71 
f 274//71 275//71 76//71 
f 274//71 86//71 88//71 
f 274//71 83//71 84//71 
f 93//71 264//71 263//71 
f 97//71 99//71 276//71 
f 265//71 99//71 101//71 
f 26//71 277//71 266//71 
f 20//71 22//71 266//71 
f 267//71 271//71 38//71 
f 278//71 261//71 58//71 
f 271//71 279//71 36//71 
f 62//71 273//71 268//71 
f 62//71 64//71 272//71 
f 280//71 272//71 66//71 
f 76//71 78//71 274//71 
f 84//71 86//71 274//71 
f 95//71 281//71 270//71 
f 97//71 282//71 281//71 
f 265//71 276//71 99//71 
f 22//71 24//71 266//71 
f 58//71 60//71 278//71 
f 279//71 283//71 36//71 
f 64//71 66//71 272//71 
f 66//71 68//71 280//71 
f 35//71 284//71 285//71 
f 35//71 36//71 286//71 
f 78//71 80//71 274//71 
f 91//71 263//71 262//71 
f 276//71 282//71 97//71 
f 31//71 287//71 288//71 
f 29//71 288//71 277//71 
f 266//71 24//71 26//71 
f 283//71 286//71 36//71 
f 68//71 70//71 280//71 
f 35//71 289//71 284//71 
f 286//71 290//71 35//71 
f 275//71 72//71 74//71 
f 275//71 280//71 70//71 
f 80//71 81//71 274//71 
f 281//71 95//71 97//71 
f 35//71 291//71 292//71 
f 33//71 293//71 294//71 
f 33//71 295//71 296//71 
f 31//71 294//71 287//71 
f 26//71 27//71 277//71 
f 269//71 278//71 60//71 
f 290//71 289//71 35//71 
f 70//71 72//71 275//71 
f 88//71 262//71 274//71 
f 35//71 297//71 295//71 
f 292//71 298//71 35//71 
f 296//71 293//71 33//71 
f 277//71 27//71 29//71 
f 2//71 103//71 105//71 
f 285//71 291//71 35//71 
f 81//71 83//71 274//71 
f 298//71 297//71 35//71 
f 288//71 29//71 31//71 
f 111//71 3//71 2//71 
f 105//71 107//71 2//71 
f 74//71 76//71 275//71 
f 294//71 31//71 33//71 
f 107//71 109//71 2//71 
f 295//71 33//71 35//71 
f 2//71 109//71 111//71 
f 111//71 5//71 3//71 
f 248//71 54//71 56//71 
o mesh5
f 120//72 9//72 246//72 
f 246//72 154//72 120//72 
o mesh6
f 154//73 246//73 242//73 
f 242//73 155//73 154//73 
o mesh7
f 232//74 2//75 1//75 
f 145//76 230//76 232//74 
f 228//77 230//76 145//76 
f 226//78 228//77 141//77 
f 137//79 223//79 226//78 
f 135//80 224//80 223//79 
f 134//81 236//81 224//80 
f 218//82 236//81 134//81 
f 128//83 217//83 218//82 
f 127//84 216//84 217//83 
f 126//85 215//85 216//84 
f 124//86 211//86 215//85 
f 212//87 211//86 124//86 
f 122//88 213//88 212//87 
f 121//89 210//89 213//88 
f 125//90 214//90 210//89 
f 130//91 219//91 214//90 
f 131//92 220//92 219//91 
f 132//93 221//93 220//92 
f 136//94 225//94 221//93 
f 138//95 227//95 225//94 
f 140//96 229//96 227//95 
f 142//97 231//97 229//96 
f 146//98 235//98 231//97 
f 133//99 222//99 235//98 
f 149//100 239//100 222//99 
f 147//101 233//101 239//100 
f 234//102 233//101 147//101 
f 143//103 240//103 234//102 
f 150//104 237//104 240//103 
f 148//105 238//105 237//104 
f 153//106 243//106 238//105 
f 157//107 245//107 243//106 
f 158//108 253//108 245//107 
f 163//109 260//109 253//108 
f 167//110 258//110 260//109 
f 168//111 259//111 258//110 
f 172//112 265//112 259//111 
f 276//113 265//112 172//112 
f 181//114 282//114 276//113 
f 190//115 281//115 282//114 
f 270//116 281//115 190//115 
f 173//117 264//117 270//116 
f 175//118 263//118 264//117 
f 262//119 263//118 175//118 
f 182//120 274//120 262//119 
f 205//121 275//121 274//120 
f 280//122 275//121 205//121 
f 183//123 272//123 280//122 
f 198//124 273//124 272//123 
f 268//125 273//124 198//124 
f 185//126 269//126 268//125 
f 184//127 278//127 269//126 
f 188//128 261//128 278//127 
f 257//129 261//128 188//128 
f 169//130 250//130 257//129 
f 251//131 250//130 169//130 
f 170//132 247//132 251//131 
f 166//133 248//133 247//132 
f 249//134 248//133 166//133 
f 160//135 252//135 249//134 
f 159//136 244//136 252//135 
f 177//137 267//137 244//136 
f 187//138 271//138 267//137 
f 186//139 279//139 271//138 
f 192//140 283//140 279//139 
f 195//141 286//141 283//140 
f 290//142 286//141 195//141 
f 206//143 289//143 290//142 
f 207//144 284//144 289//143 
f 285//145 284//144 207//144 
f 196//146 291//146 285//145 
f 204//147 292//147 291//146 
f 203//148 298//148 292//147 
f 297//149 298//148 203//148 
f 209//150 295//150 297//149 
f 296//151 295//150 209//150 
f 200//152 293//152 296//151 
f 202//153 294//153 293//152 
f 199//154 287//154 294//153 
f 193//155 288//155 287//154 
f 189//156 277//156 288//155 
f 266//157 277//156 189//156 
f 254//158 266//157 171//157 
f 161//159 255//159 254//158 
f 156//160 256//160 255//159 
f 152//161 241//161 256//160 
f 155//162 242//162 241//161 
f 241//161 152//161 155//162 
f 256//160 156//160 152//161 
f 255//159 161//159 156//160 
f 254//158 162//163 161//159 
f 171//157 162//163 254//158 
f 189//156 171//157 266//157 
f 288//155 193//155 189//156 
f 287//154 199//154 193//155 
f 294//153 202//153 199//154 
f 293//152 200//152 202//153 
f 296//151 201//164 200//152 
f 209//150 201//164 296//151 
f 297//149 208//165 209//150 
f 203//148 208//165 297//149 
f 292//147 204//147 203//148 
f 291//146 196//146 204//147 
f 285//145 197//166 196//146 
f 207//144 197//166 285//145 
f 289//143 206//143 207//144 
f 290//142 194//167 206//143 
f 195//141 194//167 290//142 
f 283//140 192//140 195//141 
f 279//139 186//139 192//140 
f 271//138 187//138 186//139 
f 267//137 177//137 187//138 
f 244//136 159//136 177//137 
f 252//135 160//135 159//136 
f 249//134 164//168 160//135 
f 166//133 164//168 249//134 
f 247//132 170//132 166//133 
f 251//131 165//169 170//132 
f 169//130 165//169 251//131 
f 257//129 178//170 169//130 
f 188//128 178//170 257//129 
f 278//127 184//127 188//128 
f 269//126 185//126 184//127 
f 268//125 179//171 185//126 
f 198//124 179//171 268//125 
f 272//123 183//123 198//124 
f 280//122 191//172 183//123 
f 205//121 191//172 280//122 
f 274//120 182//120 205//121 
f 262//119 176//173 182//120 
f 175//118 176//173 262//119 
f 264//117 173//117 175//118 
f 270//116 174//174 173//117 
f 190//115 174//174 270//116 
f 282//114 181//114 190//115 
f 276//113 180//175 181//114 
f 172//112 180//175 276//113 
f 259//111 168//111 172//112 
f 258//110 167//110 168//111 
f 260//109 163//109 167//110 
f 253//108 158//108 163//109 
f 245//107 157//107 158//108 
f 243//106 153//106 157//107 
f 238//105 148//105 153//106 
f 237//104 150//104 148//105 
f 240//103 143//103 150//104 
f 234//102 144//176 143//103 
f 147//101 144//176 234//102 
f 239//100 149//100 147//101 
f 222//99 133//99 149//100 
f 235//98 146//98 133//99 
f 231//97 142//97 146//98 
f 229//96 140//96 142//97 
f 227//95 138//95 140//96 
f 225//94 136//94 138//95 
f 221//93 132//93 136//94 
f 220//92 131//92 132//93 
f 219//91 130//91 131//92 
f 214//90 125//90 130//91 
f 210//89 121//89 125//90 
f 213//88 122//88 121//89 
f 212//87 123//177 122//88 
f 124//86 123//177 212//87 
f 215//85 126//85 124//86 
f 216//84 127//84 126//85 
f 217//83 128//83 127//84 
f 218//82 129//178 128//83 
f 134//81 129//178 218//82 
f 224//80 135//80 134//81 
f 223//79 137//79 135//80 
f 226//78 139//179 137//79 
f 141//77 139//179 226//78 
f 145//76 141//77 228//77 
f 232//74 151//180 145//76 
f 1//75 151//180 232//74 
